<svg xmlns="http://www.w3.org/2000/svg" width="100" height="100"><g><path d="M50 58.449l-20.73-6.771v14.335c5.538 4.844 12.78 7.786 20.714 7.788l.016.002.017-.002c7.935-.002 15.175-2.944 20.714-7.788v-14.334l-20.731 6.77zM49.202 38.524c.144-.441.618-.682 1.06-.538l24.959 8.151c.264.087.455.293.535.539l24.164-7.891-49.92-16.302-49.919 16.302 49.919 16.302 23.605-7.708-23.866-7.794c-.44-.145-.682-.62-.537-1.061zM77.361 56.435c0-.965-.547-1.794-1.344-2.218l-.217-7.281-.002-.027-.043-.233-2.15.703.496.162-.195 6.557c-.93.372-1.586 1.276-1.586 2.338 0 1.007.594 1.869 1.447 2.273l-.51 17.057v.102c.029.939.812 1.678 1.754 1.65.938-.029 1.678-.812 1.648-1.752l-.512-17.184c.726-.444 1.214-1.236 1.214-2.147z"/></g></svg>