<svg xmlns="http://www.w3.org/2000/svg" width="100" height="100"><g><g fill="#050505"><path d="M42.966 51.018h.606c-.168-.14-.33-.268-.476-.422-4.806-4.341-8.473-12.778-8.473-19.599 0-9.65 7.9-15.998 15.371-15.998 7.465 0 14.968 6.867 14.968 16.513 0 6.818-4.056 14.999-9.073 19.191 1.03 3.933 6.678 5.22 18.323 8.414 12.938 3.552 11.579 15.705 10.673 18.244-1.496 4.195-68.574 4.972-69.839 0-.281-2.057-3.246-14.692 9.695-18.244 11.326-3.109 16.968-4.414 18.225-8.099zM43.572 51.018h-.606l.129-.422c.145.154.31.283.477.422z"/></g><path fill="#050505" d="M24.331 57.623l2.164-.592c4.106-1.121 7.357-2.016 9.796-2.903-1.913-.847-3.007-1.78-3.362-3.132 1.643-1.373 3.129-3.331 4.302-5.512-2.513-4.452-4.157-9.818-4.157-14.486 0-1.709.289-3.44.814-5.118-1.656-1.024-3.512-1.602-5.369-1.602-5.591 0-11.503 4.75-11.503 11.972 0 5.104 2.744 11.418 6.34 14.667.109.115.231.211.356.315h-.454c-.94 2.759-5.162 3.733-13.638 6.062-9.684 2.658-7.465 12.114-7.255 13.653.272 1.068 4.622 1.781 10.697 2.181-.251-10.054 5.789-14.002 11.269-15.505z"/><path fill="#050505" d="M75.385 57.623l-2.164-.592c-4.104-1.121-7.357-2.016-9.796-2.903 1.913-.847 3.007-1.78 3.362-3.132-1.643-1.373-3.129-3.331-4.303-5.512 2.514-4.452 4.158-9.818 4.158-14.486 0-1.709-.289-3.44-.814-5.118 1.656-1.024 3.512-1.602 5.369-1.602 5.591 0 11.503 4.75 11.503 11.972 0 5.104-2.744 11.418-6.341 14.667-.108.115-.23.211-.355.315h.454c.94 2.759 5.162 3.733 13.638 6.062 9.684 2.658 7.465 12.114 7.256 13.653-.271 1.068-4.623 1.781-10.697 2.181.249-10.054-5.792-14.002-11.27-15.505z"/></g></svg>